<mxfile host="app.diagrams.net" agent="Mozilla/5.0 (Windows NT 10.0; Win64; x64) AppleWebKit/537.36 (KHTML, like Gecko) Chrome/140.0.0.0 Safari/537.36" version="28.2.5">
  <diagram name="第 1 页" id="K_TMOe9vPnAKWXxnL9Dd">
    <mxGraphModel dx="1442" dy="665" grid="0" gridSize="10" guides="1" tooltips="1" connect="1" arrows="1" fold="1" page="0" pageScale="1" pageWidth="827" pageHeight="1169" math="0" shadow="0">
      <root>
        <mxCell id="0" />
        <mxCell id="1" parent="0" />
        <mxCell id="UA2w6ISKNz6lKtn4OIPo-7" style="edgeStyle=orthogonalEdgeStyle;rounded=0;orthogonalLoop=1;jettySize=auto;html=1;exitX=1;exitY=0.5;exitDx=0;exitDy=0;entryX=0;entryY=0.5;entryDx=0;entryDy=0;curved=1;shadow=1;" edge="1" parent="1" source="UA2w6ISKNz6lKtn4OIPo-1" target="UA2w6ISKNz6lKtn4OIPo-2">
          <mxGeometry relative="1" as="geometry" />
        </mxCell>
        <mxCell id="UA2w6ISKNz6lKtn4OIPo-8" style="edgeStyle=orthogonalEdgeStyle;shape=connector;curved=1;rounded=0;orthogonalLoop=1;jettySize=auto;html=1;exitX=1;exitY=0.5;exitDx=0;exitDy=0;entryX=0;entryY=0.5;entryDx=0;entryDy=0;shadow=0;strokeColor=default;align=center;verticalAlign=middle;fontFamily=Helvetica;fontSize=12;fontColor=default;labelBackgroundColor=default;endArrow=classic;sketch=1;curveFitting=1;jiggle=2;" edge="1" parent="1" source="UA2w6ISKNz6lKtn4OIPo-1" target="UA2w6ISKNz6lKtn4OIPo-5">
          <mxGeometry relative="1" as="geometry" />
        </mxCell>
        <mxCell id="UA2w6ISKNz6lKtn4OIPo-9" style="edgeStyle=orthogonalEdgeStyle;shape=connector;curved=1;rounded=0;sketch=1;jiggle=2;curveFitting=1;orthogonalLoop=1;jettySize=auto;html=1;exitX=1;exitY=0.5;exitDx=0;exitDy=0;entryX=0;entryY=0.5;entryDx=0;entryDy=0;shadow=0;strokeColor=default;align=center;verticalAlign=middle;fontFamily=Helvetica;fontSize=12;fontColor=default;labelBackgroundColor=default;endArrow=classic;" edge="1" parent="1" source="UA2w6ISKNz6lKtn4OIPo-1" target="UA2w6ISKNz6lKtn4OIPo-6">
          <mxGeometry relative="1" as="geometry" />
        </mxCell>
        <mxCell id="UA2w6ISKNz6lKtn4OIPo-1" value="SignalRegistry" style="rounded=1;whiteSpace=wrap;html=1;sketch=1;curveFitting=1;jiggle=2;fillColor=#dae8fc;strokeColor=#6c8ebf;" vertex="1" parent="1">
          <mxGeometry x="87" y="146" width="120" height="60" as="geometry" />
        </mxCell>
        <mxCell id="UA2w6ISKNz6lKtn4OIPo-2" value="SignalRegistryImp" style="rounded=1;whiteSpace=wrap;html=1;sketch=1;curveFitting=1;jiggle=2;fillColor=#d5e8d4;strokeColor=#82b366;" vertex="1" parent="1">
          <mxGeometry x="373" y="66" width="120" height="60" as="geometry" />
        </mxCell>
        <mxCell id="UA2w6ISKNz6lKtn4OIPo-16" style="edgeStyle=orthogonalEdgeStyle;shape=connector;curved=1;rounded=0;sketch=1;jiggle=2;curveFitting=1;orthogonalLoop=1;jettySize=auto;html=1;exitX=1;exitY=0.5;exitDx=0;exitDy=0;entryX=0;entryY=0.5;entryDx=0;entryDy=0;shadow=0;strokeColor=default;align=center;verticalAlign=middle;fontFamily=Helvetica;fontSize=12;fontColor=#333333;labelBackgroundColor=none;endArrow=classic;" edge="1" parent="1" source="UA2w6ISKNz6lKtn4OIPo-5" target="UA2w6ISKNz6lKtn4OIPo-15">
          <mxGeometry relative="1" as="geometry" />
        </mxCell>
        <mxCell id="UA2w6ISKNz6lKtn4OIPo-5" value="SignalRegistryImp" style="rounded=1;whiteSpace=wrap;html=1;sketch=1;curveFitting=1;jiggle=2;fillColor=#d5e8d4;strokeColor=#82b366;" vertex="1" parent="1">
          <mxGeometry x="371" y="146" width="120" height="60" as="geometry" />
        </mxCell>
        <mxCell id="UA2w6ISKNz6lKtn4OIPo-6" value="SignalRegistryImp" style="rounded=1;whiteSpace=wrap;html=1;sketch=1;curveFitting=1;jiggle=2;fillColor=#d5e8d4;strokeColor=#82b366;" vertex="1" parent="1">
          <mxGeometry x="373" y="234" width="120" height="60" as="geometry" />
        </mxCell>
        <mxCell id="UA2w6ISKNz6lKtn4OIPo-10" value="&lt;span&gt;通过ServiceLoader加载所有的SignalRegistryImp&lt;/span&gt;" style="shape=callout;whiteSpace=wrap;html=1;perimeter=calloutPerimeter;rounded=1;sketch=1;jiggle=2;curveFitting=1;strokeColor=#6c8ebf;align=center;verticalAlign=middle;fontFamily=Helvetica;fontSize=12;fontColor=default;labelBackgroundColor=none;fillColor=#dae8fc;" vertex="1" parent="1">
          <mxGeometry x="188" y="38" width="140" height="95" as="geometry" />
        </mxCell>
        <mxCell id="UA2w6ISKNz6lKtn4OIPo-11" value="Actor" style="shape=umlActor;verticalLabelPosition=bottom;verticalAlign=top;html=1;outlineConnect=0;rounded=1;sketch=1;jiggle=2;curveFitting=1;strokeColor=#666666;align=center;fontFamily=Helvetica;fontSize=12;fontColor=#333333;labelBackgroundColor=default;fillColor=#f5f5f5;" vertex="1" parent="1">
          <mxGeometry x="-113" y="168" width="30" height="60" as="geometry" />
        </mxCell>
        <mxCell id="UA2w6ISKNz6lKtn4OIPo-13" style="edgeStyle=orthogonalEdgeStyle;shape=connector;curved=1;rounded=0;sketch=1;jiggle=2;curveFitting=1;orthogonalLoop=1;jettySize=auto;html=1;exitX=1;exitY=0.3333333333333333;exitDx=0;exitDy=0;exitPerimeter=0;entryX=-0.017;entryY=0.383;entryDx=0;entryDy=0;entryPerimeter=0;shadow=0;strokeColor=default;align=center;verticalAlign=middle;fontFamily=Helvetica;fontSize=12;fontColor=default;labelBackgroundColor=default;endArrow=classic;" edge="1" parent="1" source="UA2w6ISKNz6lKtn4OIPo-11" target="UA2w6ISKNz6lKtn4OIPo-1">
          <mxGeometry relative="1" as="geometry" />
        </mxCell>
        <mxCell id="UA2w6ISKNz6lKtn4OIPo-14" value="&lt;span style=&quot;color: rgb(0, 0, 0);&quot;&gt;SignalRegistry为唯一入口，通过静态方法来创建自身&lt;/span&gt;" style="shape=callout;whiteSpace=wrap;html=1;perimeter=calloutPerimeter;rounded=1;sketch=1;jiggle=2;curveFitting=1;strokeColor=#666666;align=center;verticalAlign=middle;fontFamily=Helvetica;fontSize=12;fontColor=#333333;labelBackgroundColor=none;fillColor=#f5f5f5;" vertex="1" parent="1">
          <mxGeometry x="-88" y="93" width="120" height="80" as="geometry" />
        </mxCell>
        <mxCell id="UA2w6ISKNz6lKtn4OIPo-15" value="VehicleSignal" style="rounded=1;whiteSpace=wrap;html=1;sketch=1;curveFitting=1;jiggle=2;fillColor=#ffe6cc;strokeColor=#d79b00;" vertex="1" parent="1">
          <mxGeometry x="613" y="150" width="120" height="60" as="geometry" />
        </mxCell>
        <mxCell id="UA2w6ISKNz6lKtn4OIPo-17" value="业务接口，空实现" style="shape=callout;whiteSpace=wrap;html=1;perimeter=calloutPerimeter;rounded=1;sketch=1;jiggle=2;curveFitting=1;strokeColor=#d79b00;align=center;verticalAlign=middle;fontFamily=Helvetica;fontSize=12;labelBackgroundColor=none;fillColor=#ffe6cc;" vertex="1" parent="1">
          <mxGeometry x="610" y="53" width="120" height="80" as="geometry" />
        </mxCell>
      </root>
    </mxGraphModel>
  </diagram>
</mxfile>
